<svg version="1.0" xmlns="http://www.w3.org/2000/svg" width="933.333" height="933.333" viewBox="0 0 700 700"><path d="M367.5 58.8c-5.2.3-25.7 2.7-31 3.7-66.2 11.9-124.4 46.9-162.9 97.9-17 22.6-29.7 47.9-37.6 74.9-3.7 12.4-3.5 15.9 1.1 21.2 5.3 6 8.5 6.2 23.9 2 35.3-9.7 70.8-10.5 106-2.4 39.7 9.2 76.2 30 104.2 59.6 27.3 28.7 46.3 69.3 50.5 107.8 1.5 13.1.8 40.6-1.3 50-.2 1.1-.6 3.1-.8 4.5-2.2 13-8.2 31.1-15.3 45.9-9.5 19.8-8.5 21.9 15.4 36.1 8.7 5.2 28.2 16.8 43.3 25.8 52.2 31.1 51.8 30.9 61.2 29.8 12.1-1.5 22.8-10.8 25.2-22.1 1.2-5.7 1.1-7.9-1.9-31.8-1.3-10-1.6-12.5-2-15.7-.8-7.4-1.7-14.6-2-16.1-.2-.8-.6-4-.9-7-.3-3-1-8.8-1.5-12.9-.6-4.2-1.3-10.3-1.6-13.5l-.6-6 6.3-4.5c14.6-10.4 31.2-26.3 44.2-42.5 7.1-8.7 18.6-24.9 18.6-26.1 0-.3.9-1.8 2-3.4 2.4-3.4 11-20.5 14-28 1.2-3 2.8-6.9 3.5-8.5 3.5-8.2 9.3-30.2 11.2-42 .2-1.7.6-4.1.8-5.5 2.5-14.7 2.4-44.8 0-63-.6-4.3-4.1-21.8-5-25-.4-1.5-3.4-11.7-3.9-13.5-3.1-10.3-13.7-33.6-20.6-45-1.6-2.8-3.3-5.7-3.7-6.5-.7-1.7-2.3-3.9-10.9-15.5-3.2-4.4-7.2-9.6-8.8-11.5-4.7-5.5-25.6-26.1-30.9-30.5-2.7-2.2-5.4-4.5-6-5-7.3-6.4-28.8-19.9-43.2-27.2-23.3-11.8-52.7-21.5-75-24.8-2.2-.4-4.7-.8-5.5-1-.8-.3-3.7-.7-6.5-1-2.7-.2-7.2-.7-10-1.1-5.4-.7-33.8-1.1-42-.6z"/><path d="M209.9 294.4c-.2.2-4 .6-8.4.9-29.4 2.1-63 15.8-87.5 35.5-44.9 36.2-64.8 93-51.4 147 7.9 32 26.4 60.1 53.5 81.2 3.5 2.8 6.3 5.4 6.2 5.8-.1.8-1 7.8-1.8 15.2-.5 4.3-3.1 24.2-4 30.5-2.2 15.7-1.3 20.6 4.6 25.9 6.3 5.8 14.2 6.6 21.7 2.5 2-1.2 14.5-8.5 27.7-16.4 13.2-7.8 25.4-15.1 27.2-16.1 1.8-1.1 6.9-4.1 11.5-6.8s8.6-5.1 9-5.3c.4-.2 4.2-.5 8.5-.8 10.9-.5 21.6-2 30.3-4 1.4-.3 3.5-.8 4.8-1.1 5.4-1.1 21.4-6.9 29.1-10.6 44.5-21.2 75.7-60 85.7-106.8 1.3-6.2 1.8-13 1.9-25 0-18.6-.4-22.8-3.5-35.5-12.4-50-50.9-90.3-102.7-107.5-6.5-2.1-13.5-4.1-15.7-4.4-2.1-.4-4.1-.8-4.5-1-.3-.2-3-.7-6-1.1-3-.4-6.3-.9-7.5-1.1-2.7-.5-28.2-1.4-28.7-1z"/></svg>